<?xml version="1.0" encoding="UTF-8" standalone="no"?>
<!DOCTYPE svg PUBLIC "-//W3C//DTD SVG 1.1//EN" "http://www.w3.org/Graphics/SVG/1.1/DTD/svg11.dtd">
<svg width="100%" height="100%" viewBox="0 0 512 512" version="1.1" xmlns="http://www.w3.org/2000/svg" xmlns:xlink="http://www.w3.org/1999/xlink" xml:space="preserve" xmlns:serif="http://www.serif.com/" style="fill-rule:evenodd;clip-rule:evenodd;stroke-linejoin:round;stroke-miterlimit:2;">
    <g id="Ebene-1" serif:id="Ebene 1">
        <path id="path1" d="M74.011,249.777C73.626,249.599 73.246,249.41 72.869,249.212L69.69,247.534L62.461,242.711C60.453,241.072 58.519,239.218 56.768,237.259L51.04,229.371L47.85,222.223L45.838,213.116L47.31,202.816L51.864,195.07L51.872,195.061L60.402,188.664L64.447,187.511C64.336,173.782 64.291,150.484 64.349,124.276L64.514,49.597C64.523,45.683 65.45,41.826 67.222,38.336L69.344,34.156L75.639,24.605L84.603,16.54C90.228,12.719 97.039,9.932 105.672,8.507C110.91,7.643 240.928,7.716 246.3,8.588L249.987,9.487L250.723,9.232C254.833,8.379 274.117,7.675 329.221,7.641C396.057,7.6 400.061,8.672 403.946,9.881C418.035,14.266 429.749,24.98 435.518,39.267L436.964,42.847C438.165,45.821 438.782,48.999 438.782,52.207L438.782,125.754C438.782,151.78 438.679,174.899 438.531,188.397L440.875,188.87L446.348,191.359L452.482,196.615L457.167,205.067L458.369,213.223L458.369,213.257L455.776,224.493C454.16,228.294 451.06,233.64 448.595,236.751L442.735,242.578L434.057,248.071L429.979,250.078C429.658,250.236 429.334,250.387 429.007,250.531C436.721,256.765 447.827,268.178 452.606,275.448C463.147,291.482 471.262,313.055 473.262,329.525C473.774,333.746 474.182,351.247 474.214,382.051C474.262,429.113 473.872,430.06 472.359,437.52C470.087,448.72 468.412,453.544 463.852,462.659C457.145,476.065 446.252,488.729 436.126,495.671C425.392,503.031 409.086,510.265 394.272,511.101C383.149,511.729 376.703,511.986 365.742,508.815C351.256,504.624 340.362,498.205 329.238,487.133C324.245,482.163 319.538,477.217 292.328,448.256L289.134,444.856C278.95,443.461 271.597,441.955 266.284,440.206L231.059,439.551C225.749,441.711 218.359,443.641 211.559,444.648C208.58,448.007 204.333,452.853 201.368,456.281C190.903,468.38 174.294,485.959 169.284,490.367C159.615,498.875 147.623,505.293 135.761,508.442C127.37,510.669 110.119,511.578 104.468,510.508C92.491,508.24 88.869,507.152 83.75,505.12C60.482,495.886 40.926,475.213 32.854,451.166C29.147,440.123 28.083,435.49 27.687,392.577C27.281,348.574 28.421,325.172 30.573,315.189C33.749,300.461 42.089,282.616 50.986,271.307C56.202,264.675 67.943,253.745 73.735,249.957L74.011,249.777ZM277.48,22.945C276.73,21.617 275.786,20.313 274.618,19.053L277.48,22.945Z" style="fill:rgb(196,196,196);fill-rule:nonzero;"/>
        <path id="path11" serif:id="path1" d="M391.065,486.308C401.92,484.904 414.07,480.481 421.989,475.052C429.177,470.124 436.733,460.989 441.494,451.474C444.924,444.617 446.149,440.976 447.858,432.55C449.234,425.764 449.258,424.891 449.214,382.077C449.184,353.026 448.927,336.519 448.444,332.538C446.838,319.316 440.178,302.053 431.716,289.181C427.482,282.74 416.525,271.576 411.575,268.659C407.114,266.03 399.497,263.394 397.05,263.633C395.147,263.818 395.181,263.862 398.845,265.962C419.353,277.715 429.917,290.258 436.802,311.029C440.197,321.273 440.336,324.103 440.088,378.342C439.865,427.211 439.855,427.541 438.457,432.42C434.492,446.248 422.765,462.786 412.654,468.81C403.979,473.979 396.346,476.048 386.086,476.011C377.071,475.978 372.783,475.031 365.229,471.404C358.729,468.282 355.18,464.974 336.361,444.486C304.649,409.964 307.185,412.558 305.319,412.742C304.384,412.834 297.456,413.014 289.925,413.142C277.89,413.346 276.208,413.497 276.029,414.387C275.574,416.65 287.885,420.307 296.279,420.401L300.506,420.449L310.548,431.138C337.333,459.647 341.959,464.522 346.875,469.414C354.748,477.251 362.436,481.833 372.689,484.799C379.75,486.842 384.145,487.203 391.065,486.308L391.065,486.308ZM129.347,484.278C137.643,482.076 146.007,477.548 152.769,471.599C157.415,467.51 172.754,451.147 182.459,439.927C185.996,435.837 191.318,429.774 194.284,426.453L199.678,420.415L202.864,420.384C210.838,420.308 223.837,416.581 226.243,413.683C226.871,412.925 226.401,412.871 222.975,413.308C218.056,413.935 203.196,413.703 196.877,412.899C192.423,412.333 192.167,412.369 191.279,413.685C190.768,414.443 188.527,417.04 186.3,419.455C179.838,426.464 173.311,433.832 169.314,438.627C167.277,441.071 161.682,447.338 156.88,452.552C152.079,457.767 147.768,462.58 147.3,463.248C146.139,464.906 137.953,470.314 133.221,472.55C121.886,477.905 103.82,477.492 92.104,471.61C75.123,463.084 63.016,443.63 61.174,421.91C60.854,418.144 60.589,395.565 60.583,371.733C60.572,324.341 60.637,323.291 64.297,311.435C69.592,294.281 78.856,282.244 95.738,270.583L102.585,265.854L99.256,266.268C95.042,266.791 91.65,268.113 87.416,270.882C83.126,273.686 74.498,281.852 70.635,286.763C63.807,295.443 57.449,309.157 55.011,320.459C53.012,329.73 52.309,351.478 52.686,392.346C53.03,429.564 53.339,433.632 56.554,443.21C62.335,460.433 76.307,475.27 92.972,481.883C96.954,483.464 99.804,484.18 109.12,485.945C112.777,486.637 123.917,485.72 129.347,484.278L129.347,484.278ZM121.819,463.314C132.362,460.618 136.664,456.963 160.662,430.312C167.905,422.268 176.295,413.025 179.305,409.773C182.315,406.521 185.217,403.229 185.754,402.456L186.73,401.052L190.715,402.84C197.281,405.785 208.944,407.457 216.904,406.593C220.844,406.166 223.197,405.487 226.731,403.756C232.908,400.732 238.638,395.157 240.218,390.634L241.36,387.367L245.476,387.367C247.741,387.367 251.666,387.201 254.199,386.999L258.806,386.632L260.35,390.267C262.599,395.561 269.39,402.285 274.345,404.122C279.481,406.027 283.286,406.662 289.544,406.657C296.121,406.651 304.074,404.863 309.399,402.191L313.312,400.227L314.341,401.733C314.907,402.561 319.029,407.019 323.502,411.64C327.975,416.262 336.534,425.493 342.522,432.155C365.951,458.218 365.555,457.819 370.398,460.26C375.78,462.973 380.97,464.104 387.642,464.018C405.808,463.784 420.63,450.578 426.73,429.191C428.093,424.415 428.097,424.242 427.929,375.23C427.739,319.634 427.764,319.976 423.11,309.098C419.754,301.253 416.93,296.916 411.337,291.019C405.57,284.937 400.122,280.906 392.621,277.17C380.811,271.287 388.996,271.723 285.257,271.45C235.108,271.318 177.692,271.375 157.666,271.577L121.256,271.944L115.488,274.198C99.926,280.28 87.107,290.922 81.131,302.721C76.89,311.095 75.597,314.856 74.299,322.588C73.091,329.786 73.021,332.696 73.021,375.648C73.021,418.399 73.093,421.448 74.246,427.104C76.348,437.417 80.586,445.931 86.713,452.149C92.023,457.537 95.191,459.75 100.497,461.778C108.108,464.686 114.62,465.156 121.819,463.314ZM381.106,452.942C378.478,452.477 376.835,451.37 376.254,449.673C375.574,447.685 376.001,443.629 376.971,442.863C377.363,442.554 379.924,441.979 382.662,441.585C389.493,440.603 393.328,438.586 397.951,433.546C403.437,427.565 404.713,424.667 406.226,414.76C406.866,410.566 407.115,410.015 408.71,409.251C411.082,408.114 415.501,409.305 417.274,411.557C418.364,412.944 418.479,413.686 418.106,416.916C417.447,422.608 416.369,425.53 412.629,431.766C408.468,438.703 404.077,444.208 400.574,446.879C395.762,450.549 385.555,453.728 381.106,452.942ZM110.933,451.512C100.919,448.838 91.949,441.047 86.809,430.557C83.844,424.506 82.267,418.949 82.478,415.29C82.649,412.328 82.882,411.849 84.783,410.572C87.326,408.862 90.494,408.727 91.889,410.269C92.446,410.884 93.326,413.404 93.844,415.87C95.056,421.633 96.014,423.865 99.563,429.204C104.137,436.084 110.267,439.987 118.456,441.234C122.337,441.824 123.224,442.415 124.068,444.97C124.928,447.576 124.083,450.327 121.966,451.81C120.276,452.993 116.054,452.879 110.933,451.512ZM203.724,396.997C195.214,394.639 190.319,390.623 186.676,383.01C184.907,379.312 184.741,378.427 184.741,372.708C184.741,366.725 184.843,366.244 187.092,361.694C190.456,354.889 196.383,350.196 204.611,347.823C215.549,344.669 227.262,350.382 232.42,361.387C234.401,365.615 234.532,366.3 234.532,372.429C234.532,378.209 234.343,379.361 232.892,382.388C228.31,391.951 221.138,397.213 212.037,397.69C208.829,397.858 205.969,397.62 203.724,396.997ZM213.991,384.802C218.784,383.472 223.003,377.666 223.014,372.385C223.02,369.935 219.856,364.297 217.37,362.327C213.339,359.131 205.618,359.104 201.377,362.271C198.216,364.631 197.242,366.607 196.983,371.187C196.771,374.939 196.944,375.857 198.305,378.169C201.924,384.322 207.392,386.634 213.991,384.802L213.991,384.802ZM283.39,396.433C270.902,392.953 263.453,383.017 264.231,370.88C264.805,361.937 270.647,353.353 278.722,349.587C282.07,348.025 283.137,347.845 289.024,347.845C295.364,347.845 295.756,347.926 300.334,350.189C305.792,352.886 309.769,356.867 312.42,362.284C314.671,366.886 315.179,374.42 313.57,379.359C312.155,383.703 306.784,391.207 303.618,393.263C298.079,396.86 289.657,398.18 283.39,396.433ZM294.97,383.87C297.952,382.634 300.599,379.192 301.385,375.527C302.605,369.838 300.323,364.884 294.954,361.564C292.454,360.019 291.28,359.694 288.347,359.733C283.855,359.795 281.183,361.287 278.871,365.026C271.807,376.452 282.545,389.02 294.97,383.87ZM360.4,381.079C351.016,379.629 344.385,371.679 344.385,361.877C344.385,355.365 348.969,348.507 355.716,344.923C357.895,343.765 359.366,343.503 363.679,343.504C368.214,343.505 369.425,343.744 372.158,345.179C378.356,348.432 382.974,355.784 382.974,362.402C382.974,366.047 382.076,368.828 379.837,372.118C374.957,379.291 368.398,382.314 360.4,381.079ZM368.611,367.402C371.32,364.693 371.252,361.828 368.409,358.986C366.63,357.207 365.848,356.87 363.495,356.87C361.07,356.87 360.438,357.164 358.765,359.07C356.631,361.5 356.355,363.475 357.767,366.205C359.01,368.61 360.307,369.276 363.787,369.299C366.218,369.314 367.01,369.003 368.611,367.402ZM126.143,379.238C124.032,378.605 120.601,375.108 119.659,372.631C119.339,371.791 119.078,366.248 119.078,360.314L119.078,349.524L108.342,349.307C96.275,349.063 95.525,348.814 92.897,344.19C90.329,339.672 90.679,323.263 93.421,319.583C96.058,316.046 97.974,315.507 109.12,315.169L119.389,314.858L119.389,292.686L122.251,289.979C125.838,286.585 128.215,285.923 136.816,285.923C144.897,285.923 147.6,286.558 150.55,289.148C153.613,291.837 154.209,293.165 154.274,297.431C154.305,299.485 154.38,304.142 154.442,307.78L154.555,314.395L165.602,314.844C178.233,315.358 180.14,315.972 182.575,320.305C183.909,322.678 183.964,323.284 183.661,332.312C183.309,342.778 182.57,345.375 179.251,347.805C177.651,348.976 176.453,349.108 165.73,349.293L153.964,349.497L154.073,360.5C154.179,371.117 154.129,371.598 152.662,374.209C150.314,378.385 148.392,379.05 137.439,379.469C132.209,379.669 127.241,379.567 126.143,379.238ZM141.564,366.719C141.852,366.266 142.104,360.993 142.124,355.002C142.162,343.836 142.647,339.272 143.934,337.992C144.459,337.47 148.284,337.323 157.477,337.471C167.645,337.635 170.397,337.507 170.814,336.849C171.518,335.739 171.502,329.941 170.79,328.069C170.227,326.587 170.114,326.569 158.952,326.164C146.552,325.715 143.766,325.055 142.725,322.316C142.385,321.422 142.102,316.017 142.097,310.305C142.091,304.593 141.852,299.549 141.564,299.095C140.863,297.989 136.71,297.489 134.015,298.187L131.837,298.752L131.484,310.083C130.977,326.325 130.953,326.349 115.269,326.363L104.926,326.372L104.54,328.706C103.925,332.428 104.078,336.019 104.887,336.828C105.414,337.355 108.986,337.575 116.982,337.575L128.329,337.575L129.751,339.572C131.087,341.448 131.187,342.283 131.42,353.42C131.556,359.938 131.916,365.743 132.219,366.32C133.168,368.123 140.476,368.436 141.564,366.719L141.564,366.719ZM323.535,348.559C319.89,346.858 316.153,342.95 314.297,338.896C312.266,334.459 312.431,327.749 314.684,323.16C316.586,319.288 319.859,315.99 323.974,313.8C327.748,311.791 336.662,311.742 340.339,313.71C343.857,315.593 347.235,319.068 349.206,322.832C350.63,325.552 350.898,326.845 350.908,331.04C350.919,335.408 350.7,336.402 349.123,339.131C346.633,343.444 341.847,347.843 338.348,349.036C333.944,350.536 327.315,350.323 323.535,348.559L323.535,348.559ZM336.204,337.311C340.94,334.862 340.23,328.118 334.949,325.387C330.124,322.892 324.057,327.89 325.736,332.977C327.199,337.409 332.094,339.436 336.204,337.311ZM387.019,348.559C383.367,346.854 379.956,343.284 377.588,338.687C376.225,336.041 375.891,334.545 375.881,331.04C375.869,327.264 376.148,326.159 377.975,322.749C381.853,315.509 388.029,311.845 396.24,311.913C401.537,311.957 407.279,314.936 410.157,319.133C414.355,325.257 415.125,332.501 412.219,338.543C410.194,342.753 404.515,348.312 401.262,349.27C396.95,350.538 390.579,350.22 387.019,348.559ZM399.021,337.226C402.608,334.714 403.033,330.067 399.969,326.869C396.743,323.502 391.589,324.216 389.464,328.326C386.565,333.932 393.93,340.792 399.021,337.226ZM246.056,326.986C244.864,326.702 243.223,325.696 242.409,324.751C241.158,323.297 240.977,322.553 241.23,319.915C241.684,315.19 243.474,313.924 249.698,313.924C253.662,313.924 254.764,314.147 255.859,315.167C258.552,317.676 258.163,323.982 255.195,325.919C253.394,327.094 248.774,327.634 246.056,326.986ZM273.654,327C271.539,326.146 270.32,323.861 270.32,320.749C270.32,318.373 270.641,317.584 272.229,316.064C274.029,314.339 274.427,314.237 279.231,314.262C284.959,314.292 286.664,314.962 288.107,317.753C290.114,321.634 287.744,325.927 282.984,327.032C279.994,327.725 275.413,327.71 273.654,327L273.654,327ZM211.884,325.401C208.412,322.48 208.746,317.536 212.577,315.139C214.308,314.057 215.446,313.892 220.116,314.05C225.263,314.224 225.712,314.347 227.118,315.982C229.849,319.157 228.506,324.458 224.553,326.11C223.388,326.597 220.487,326.995 218.107,326.995C214.37,326.995 213.518,326.777 211.884,325.401ZM355.876,318.714C352.317,317.014 348.235,312.705 346.126,308.424C344.992,306.122 344.696,304.481 344.696,300.491C344.696,295.716 344.815,295.282 347.037,291.932C351.287,285.526 357.716,282.355 365.228,282.958C372.503,283.542 377.904,287.324 380.995,293.997C384.121,300.747 382.899,307.187 377.281,313.568C373.258,318.139 370.002,319.718 364.048,319.986C359.723,320.181 358.569,320.001 355.876,318.714ZM368.794,305.885C371.637,302.703 370.79,298.876 366.784,296.805C362.147,294.407 356.584,297.123 356.584,301.785C356.584,303.693 357.017,304.515 358.957,306.294C361.124,308.279 361.58,308.441 364.196,308.146C366.385,307.899 367.471,307.365 368.794,305.885ZM255.694,401.682C256.517,401.328 255.251,401.162 251.959,401.192C247.962,401.227 247.471,401.324 249.47,401.682C252.929,402.301 254.252,402.301 255.694,401.682ZM113.911,261.972C116.582,261.126 119.441,259.959 120.265,259.379C121.58,258.452 123.517,258.337 136.136,258.43C144.041,258.489 155.9,258.715 162.49,258.933L174.471,259.33L174.471,257.468C174.471,255.256 171.714,251.221 168.769,249.123L166.691,247.642L140.239,247.818C110.939,248.013 112.328,247.817 109.348,252.192C107.252,255.271 106.645,263.51 108.515,263.51C108.812,263.51 111.24,262.818 113.911,261.972ZM392.629,259.62C391.893,253.881 391.122,251.864 388.929,249.939L386.811,248.079L361.397,247.824C342.221,247.632 335.601,247.757 334.427,248.33C331.257,249.877 326.958,255.732 326.958,258.503C326.958,258.927 333.592,259.022 347.03,258.79C369.63,258.401 377.329,258.897 384.53,261.208C387.268,262.087 390.305,262.824 391.279,262.847L393.049,262.888L392.629,259.62ZM287.667,228.22C295.115,227.029 310.206,226.89 379.638,227.375L418.937,227.649L423.015,225.641C425.513,224.412 427.832,222.702 428.998,221.229C430.864,218.873 433.347,214.058 433.374,212.743C433.383,212.274 413.511,212.139 366.029,212.284L298.671,212.489L296.165,214.938C290.81,220.172 286.93,220.787 272.81,218.638C255.506,216.004 251.755,215.613 243.719,215.599C236.208,215.587 234.914,215.76 229.093,217.555C221.079,220.026 213.644,220.574 210.213,218.945C208.933,218.338 206.949,216.503 205.713,214.784L203.504,211.708L191.322,211.991C184.621,212.146 154.787,212.047 125.023,211.771C95.26,211.494 70.855,211.329 70.79,211.404C70.725,211.479 71.109,212.894 71.642,214.549C72.877,218.377 77.224,223.243 81.356,225.423L84.535,227.1L145.841,227.1C195.268,227.1 208.051,227.266 211.815,227.958C215.423,228.622 218.672,228.692 226.13,228.27C237.328,227.635 267.241,227.836 274.054,228.592C276.622,228.876 279.247,229.148 279.887,229.194C280.528,229.241 284.029,228.802 287.667,228.22ZM219.452,205.648C219.845,204.134 219.768,203.431 219.17,203.045C216.077,201.048 227.108,200.457 259.739,200.874C273.945,201.055 285.671,201.219 285.796,201.237C285.921,201.256 285.542,202.006 284.953,202.904C284.089,204.223 284.018,204.833 284.586,206.079C285.149,207.314 285.463,207.476 286.167,206.893C287.482,205.801 288.06,202.471 287.043,201.843C286.426,201.461 286.53,201.326 287.444,201.325C288.124,201.325 290.221,201.028 292.104,200.664C294.408,200.22 314.691,200.058 354.135,200.17C386.37,200.262 412.977,200.104 413.263,199.819C413.548,199.533 413.782,166.204 413.782,125.754L413.782,52.207L412.336,48.627C409.432,41.434 403.61,35.96 396.517,33.752C393.02,32.664 389.395,32.604 329.237,32.641C271.968,32.676 256.055,32.967 255.024,33.997C254.841,34.18 255.407,35.103 256.282,36.046C258.639,38.59 258.391,40.943 255.456,43.878C252.868,46.466 251.34,46.81 248.639,45.414C245.518,43.8 244.474,40.132 246.053,36.322C246.484,35.281 246.722,34.314 246.581,34.174C246.441,34.034 244.513,33.625 242.296,33.265C237.233,32.443 114.679,32.359 109.742,33.174C100.701,34.666 95.238,38.376 91.636,45.471L89.514,49.652L89.349,124.331C89.258,165.405 89.408,199.235 89.684,199.511C89.959,199.786 117.621,200.131 151.155,200.278C189.782,200.447 212.72,200.774 213.748,201.17C214.961,201.637 215.464,202.37 215.741,204.078C216.445,208.416 218.509,209.289 219.452,205.648ZM105.152,189.158C103.825,188.683 102.425,187.979 102.04,187.593C101.532,187.085 101.307,168.721 101.219,120.588L101.098,54.283L103.568,51.602C104.927,50.128 106.832,48.593 107.802,48.192C109.121,47.645 123.79,47.523 166.136,47.706L222.707,47.949L235.777,49.598C251.465,51.578 254.41,51.633 261.116,50.075C270.932,47.793 278.858,47.538 337.909,47.602L395.11,47.664L398.378,50.93C401.399,53.949 401.65,54.427 401.702,57.247C401.893,67.515 401.49,186.636 401.262,187.229C401.109,187.629 400.223,188.403 399.292,188.95C397.755,189.854 384.308,189.949 252.582,189.984C130.332,190.016 107.185,189.887 105.152,189.158L105.152,189.158ZM134.177,170.437L135.883,168.856L135.883,66.738L134.063,64.918C131.524,62.379 129.241,62.498 126.513,65.312L124.368,67.524L124.368,116.815C124.368,143.925 124.586,166.884 124.852,167.836C125.403,169.811 128.595,172.012 130.91,172.016C131.769,172.017 133.24,171.307 134.177,170.437ZM280.777,170.526C281.703,170.047 283.019,169.038 283.703,168.283C284.919,166.94 284.95,165.883 285.132,120.972C285.303,78.403 285.394,75.003 286.376,74.596C287.185,74.26 300.429,73.788 311.849,73.687C312.836,73.678 314.51,70.432 314.51,68.529C314.51,67.716 313.804,66.387 312.94,65.576C311.383,64.113 311.254,64.101 296.603,64.058C288.48,64.035 281.274,63.801 280.59,63.538C279.217,63.012 276.88,64.697 275.159,67.456C273.923,69.436 273.509,83.743 273.288,132.08L273.127,167.141L275.449,169.268C278.061,171.662 278.417,171.746 280.777,170.526ZM204.447,168.128C205.896,166.956 207.458,164.407 207.458,163.214C207.458,162.632 206.733,161.294 205.847,160.24L204.235,158.326L184.098,158.326C163.972,158.326 163.959,158.326 162.293,159.759C160.909,160.95 160.697,161.518 161.046,163.104C161.276,164.156 162.173,165.681 163.038,166.494C164.59,167.953 164.824,167.977 180.9,168.304C189.858,168.487 198.605,168.697 200.337,168.771C202.128,168.848 203.9,168.571 204.447,168.128ZM257.907,168.265C259.309,167.515 260.984,164.519 260.984,162.761C260.984,162.086 260.259,160.671 259.373,159.618L257.761,157.703L238.793,157.703C226.973,157.703 219.373,157.945 218.627,158.344C217.086,159.168 215.691,162.016 216.043,163.616C216.194,164.3 216.86,165.626 217.523,166.561L218.729,168.261L232.855,168.44C240.624,168.539 249.169,168.684 251.845,168.763C254.52,168.842 257.248,168.618 257.907,168.265ZM188.478,146.865C190.872,144.471 191.061,142.483 189.135,139.959L187.478,137.786L173.282,137.786C165.473,137.786 157.79,137.609 156.207,137.392C153.463,137.016 153.214,137.113 150.83,139.497C149.455,140.872 148.331,142.309 148.331,142.691C148.331,143.072 149.343,144.506 150.581,145.876L152.832,148.367L186.976,148.367L188.478,146.865ZM230.069,146.748C230.959,145.858 231.852,144.612 232.053,143.979C232.518,142.513 230.863,139.276 229.192,138.382C228.364,137.939 223.236,137.713 214.727,137.745L201.545,137.794L200.145,139.381C198.288,141.485 198.366,144.087 200.356,146.452L201.967,148.367L228.45,148.367L230.069,146.748ZM351.325,147.695C352.016,147.325 352.984,146.058 353.477,144.88C354.457,142.534 354.078,141.211 351.667,138.564L350.392,137.164L304.02,137.164L302.73,138.804C301.123,140.847 301.094,143.836 302.662,145.878L303.857,147.434L324.588,147.761C335.99,147.942 346.387,148.152 347.694,148.228C349,148.305 350.634,148.065 351.325,147.695L351.325,147.695ZM256.287,127.233C259.069,124.62 258.863,122.062 255.61,118.809C254.57,117.769 252.466,117.732 218.379,118.153C179.342,118.635 180.103,118.561 178.802,121.983C178.127,123.758 179.275,126.576 181.23,127.946C182.161,128.598 189.661,128.748 218.601,128.692L254.808,128.623L256.287,127.233ZM166.96,126.643C168.682,124.224 168.582,122.097 166.636,119.785C165.109,117.97 164.788,117.87 160.499,117.87C153.403,117.87 150.394,118.466 148.642,120.218C146.584,122.276 146.671,124.397 148.905,126.631C150.714,128.44 150.767,128.451 158.199,128.451L165.673,128.451L166.96,126.643ZM314.771,126.63C316.967,124.568 316.888,122.02 314.558,119.689C312.742,117.873 312.724,117.87 304.995,117.87C298.103,117.87 297.07,118.012 295.611,119.16C292.899,121.293 293.818,126.503 297.12,127.717C297.751,127.949 301.62,128.139 305.716,128.139C312.743,128.139 313.256,128.054 314.771,126.63ZM361.529,126.923C363.626,124.826 363.525,122.237 361.251,119.803L359.446,117.87L344.104,117.87C327.22,117.87 325.915,118.113 324.504,121.518C323.61,123.677 324.197,125.168 326.727,127.157C328.293,128.39 329.116,128.451 344.186,128.451L360.001,128.451L361.529,126.923ZM208.735,107.74C210.2,105.369 209.903,103.286 207.795,101.144L206.342,99.666L185.583,99.763C166.596,99.851 164.691,99.956 163.268,100.991C160.415,103.065 161.064,108.524 164.293,109.603C165.095,109.871 175.144,110.013 186.624,109.918L207.496,109.746L208.735,107.74ZM378.639,107.912C380.275,105.782 380.187,102.758 378.43,100.716L376.999,99.052L341.691,99.516C308.048,99.958 306.311,100.037 304.845,101.19C302.975,102.661 302.852,104.979 304.499,107.68L305.686,109.626L377.443,109.467L378.639,107.912ZM182.407,90.314C184.323,88.547 184.202,85.967 182.091,83.604L180.374,81.683L166.15,81.747C149.081,81.824 147.708,82.226 147.708,87.153C147.708,89.217 148.762,91.076 150.241,91.624C150.905,91.869 158.099,91.966 166.227,91.838C180.145,91.619 181.088,91.53 182.407,90.314L182.407,90.314ZM337.496,89.299C339.034,87.139 339.069,86.619 337.839,84.24C336.089,80.856 335.002,80.682 318.867,81.198C310.822,81.455 303.037,81.689 301.567,81.718C296.696,81.814 294.341,85.924 297.128,89.467L298.418,91.107L336.209,91.107L337.496,89.299ZM245.077,72.987C246.847,70.884 246.781,69.665 244.741,66.767C243.235,64.627 240.777,64.356 222.815,64.349L208.607,64.344L206.715,66.236C205.134,67.817 204.888,68.451 205.216,70.096C205.433,71.178 206.215,72.707 206.954,73.494C208.294,74.921 208.342,74.924 225.872,74.924L243.446,74.924L245.077,72.987ZM195.587,72.662C197.268,70.525 197.225,67.92 195.477,65.937L194.077,64.349L179.143,64.304L164.21,64.259L162.806,65.892C160.963,68.034 161.029,70.001 163.005,71.86C164.523,73.288 165.13,73.387 174.363,73.711C195.285,74.445 194.141,74.501 195.587,72.662L195.587,72.662ZM154.413,70.942C155.619,68.293 153.766,64.344 151.316,64.344C149.979,64.344 147.086,67.192 147.086,68.509C147.086,70.046 150.037,72.435 151.937,72.435C153.228,72.435 153.923,72.016 154.413,70.942Z" style="fill-rule:nonzero;"/>
    </g>
</svg>
