<?xml version="1.0" encoding="UTF-8" standalone="no"?>
<!-- Created with Inkscape (http://www.inkscape.org/) -->

<svg
   width="512"
   height="512"
   viewBox="0 0 512 512"
   version="1.1"
   id="svg1"
   xml:space="preserve"
   inkscape:version="1.3.2 (091e20e, 2023-11-25, custom)"
   sodipodi:docname="Code3_Logo.svg"
   xmlns:inkscape="http://www.inkscape.org/namespaces/inkscape"
   xmlns:sodipodi="http://sodipodi.sourceforge.net/DTD/sodipodi-0.dtd"
   xmlns="http://www.w3.org/2000/svg"
   xmlns:svg="http://www.w3.org/2000/svg"><sodipodi:namedview
     id="namedview1"
     pagecolor="#ffffff"
     bordercolor="#000000"
     borderopacity="0.25"
     inkscape:showpageshadow="2"
     inkscape:pageopacity="0.0"
     inkscape:pagecheckerboard="true"
     inkscape:deskcolor="#d1d1d1"
     inkscape:document-units="px"
     inkscape:zoom="1.621875"
     inkscape:cx="294.10405"
     inkscape:cy="253.10212"
     inkscape:window-width="2560"
     inkscape:window-height="1494"
     inkscape:window-x="-11"
     inkscape:window-y="-11"
     inkscape:window-maximized="1"
     inkscape:current-layer="layer1" /><defs
     id="defs1" /><g
     inkscape:label="Ebene 1"
     inkscape:groupmode="layer"
     id="layer1"><path
       style="fill:#000000;stroke-width:0.622395"
       d="m 391.06467,486.3079 c 10.85582,-1.40425 23.00547,-5.82649 30.92457,-11.25595 7.18736,-4.92775 14.74417,-14.06289 19.50462,-23.57832 3.43033,-6.85678 4.65483,-10.49784 6.36399,-18.9239 1.37655,-6.7862 1.39995,-7.65838 1.35589,-50.47318 -0.0299,-29.05064 -0.28643,-45.55707 -0.76984,-49.53818 -1.60547,-13.22194 -8.26585,-30.48497 -16.72818,-43.35784 -4.23353,-6.44004 -15.19104,-17.60465 -20.14089,-20.52159 -4.46133,-2.62907 -12.07758,-5.26457 -14.52521,-5.02627 -1.90241,0.18521 -1.86818,0.22961 1.79499,2.32897 20.50854,11.75346 31.0727,24.2965 37.95757,45.06769 3.39529,10.24343 3.53346,13.07403 3.28606,67.31285 -0.22294,48.86875 -0.2329,49.1992 -1.63167,54.07752 -3.96484,13.82799 -15.69139,30.36665 -25.8022,36.3905 -8.67488,5.16837 -16.30886,7.23733 -26.56886,7.20061 -9.01452,-0.0324 -13.30258,-0.97946 -20.85621,-4.60691 -6.50048,-3.12168 -10.04882,-6.43021 -28.8683,-26.91757 -31.71204,-34.52253 -29.17566,-31.92866 -31.04154,-31.74455 -0.93571,0.0923 -7.86302,0.27235 -15.39401,0.40006 -12.03531,0.20408 -13.71733,0.35484 -13.8964,1.24548 -0.45503,2.26308 11.85644,5.91959 20.24969,6.01416 l 4.22743,0.0476 10.04211,10.68868 c 26.78477,28.50939 31.41097,33.38399 36.32634,38.27651 7.87348,7.83702 15.56149,12.4189 25.81477,15.38518 7.06076,2.0427 11.45562,2.40344 18.37528,1.50837 z m -261.71718,-2.02969 c 8.29522,-2.20179 16.65996,-6.73021 23.42129,-12.67968 4.64618,-4.0882 19.98542,-20.45125 29.69005,-31.67167 3.53751,-4.08997 8.85899,-10.15326 11.82551,-13.47399 l 5.3938,-6.03769 3.18604,-0.0307 c 7.97357,-0.0768 20.97297,-3.80319 23.37859,-6.70178 0.62868,-0.75753 0.15834,-0.81142 -3.26801,-0.37446 -4.91835,0.62723 -19.77915,0.3943 -26.0974,-0.40907 -4.45479,-0.56642 -4.71047,-0.53056 -5.59813,0.78538 -0.51155,0.75839 -2.75217,3.35525 -4.97916,5.77079 -6.46183,7.00906 -12.98951,14.37664 -16.98616,19.1718 -2.03722,2.44425 -7.63224,8.71062 -12.43346,13.92527 -4.80116,5.21461 -9.1123,10.02784 -9.58034,10.69598 -1.16108,1.65775 -9.34707,7.06593 -14.07877,9.30139 -11.33549,5.35533 -29.40101,4.94225 -41.117158,-0.94019 -16.981242,-8.52601 -29.087947,-27.97937 -30.930361,-49.6998 -0.319413,-3.76549 -0.5853,-26.34508 -0.590839,-50.17687 -0.0112,-47.39156 0.05353,-48.44189 3.71352,-60.29826 5.295026,-17.15342 14.559751,-29.19087 31.441658,-40.85164 l 6.84635,-4.72894 -3.328884,0.41364 c -4.214113,0.52363 -7.60517,1.84512 -11.83976,4.61389 -4.289547,2.8047 -12.917561,10.97042 -16.781079,15.88184 -6.827425,8.67929 -13.185876,22.3931 -15.623299,33.69594 -1.999258,9.27103 -2.702813,31.0185 -2.325518,71.88664 0.343625,37.21846 0.652955,41.28633 3.868248,50.8644 5.781242,17.22212 19.75314,32.05921 36.417831,38.67297 3.981773,1.5802 6.831969,2.29707 16.147601,4.06125 3.65745,0.69267 14.79763,-0.22512 20.22784,-1.66646 z M 121.819,463.31439 c 10.54257,-2.69634 14.84487,-6.35173 38.84275,-33.00222 7.24374,-8.04446 15.63326,-17.28703 18.64341,-20.53904 3.01009,-3.25202 5.91219,-6.54462 6.44901,-7.3169 l 0.9761,-1.40414 3.98438,1.7875 c 6.56596,2.94572 18.22983,4.61756 26.18939,3.75386 3.9397,-0.42748 6.2931,-1.10694 9.82681,-2.83707 6.17709,-3.02436 11.90698,-8.59907 13.48712,-13.1219 l 1.1416,-3.26758 h 4.11677 c 2.26427,0 6.18959,-0.16544 8.72305,-0.36765 l 4.60628,-0.36766 1.54417,3.63523 c 2.24886,5.29406 9.04025,12.01789 13.99482,13.85553 5.13657,1.90515 8.9409,2.53954 15.19895,2.53445 6.57741,-0.006 14.53007,-1.79416 19.85516,-4.46604 l 3.91338,-1.96359 1.02882,1.5054 c 0.56588,0.82798 4.68844,5.28646 9.16122,9.90774 4.47284,4.62129 13.03183,13.85276 19.02002,20.51439 23.42844,26.06333 23.03291,25.66456 27.87577,28.10534 5.38229,2.71265 10.57194,3.84354 17.24352,3.75765 18.16659,-0.23396 32.98849,-13.43973 39.0889,-34.82679 1.36236,-4.77611 1.36622,-4.9493 1.19848,-53.9607 -0.1902,-55.59667 -0.16524,-55.25443 -4.81889,-66.13267 -3.35564,-7.8441 -6.18038,-12.18182 -11.77292,-18.07883 -5.76748,-6.0815 -11.21543,-10.11264 -18.71641,-13.84911 -11.80951,-5.88264 -3.62433,-5.44657 -107.36317,-5.71987 -50.14951,-0.13212 -107.56546,-0.0749 -127.59102,0.12719 l -36.41011,0.36742 -5.76811,2.25417 c -15.562243,6.0817 -28.381092,16.7237 -34.357019,28.52267 -4.241062,8.37366 -5.534648,12.13512 -6.832342,19.86733 -1.208069,7.19776 -1.27815,10.10737 -1.27815,53.05938 0,42.75121 0.07257,45.80028 1.225247,51.45634 2.101579,10.3126 6.339778,18.82642 12.467445,25.04477 5.309715,5.38832 8.477644,7.60138 13.783499,9.62883 7.61133,2.90845 14.1232,3.37774 21.32207,1.53657 z m 259.28735,-10.37278 c -2.62788,-0.46443 -4.27169,-1.57186 -4.85219,-3.26883 -0.68003,-1.98804 -0.25326,-6.04341 0.71656,-6.80939 0.39186,-0.30949 2.95308,-0.88486 5.69162,-1.27861 6.83041,-0.98208 10.66523,-2.99849 15.28876,-8.03912 5.48566,-5.98044 6.76232,-8.8787 8.27493,-18.7854 0.64038,-4.19437 0.88859,-4.74489 2.48398,-5.50955 2.3717,-1.13673 6.79145,0.0538 8.56366,2.30676 1.09062,1.38649 1.20582,2.12845 0.83201,5.35845 -0.6588,5.69226 -1.7366,8.61445 -5.47707,14.84996 -4.16109,6.93675 -8.55196,12.44164 -12.05474,15.11332 -4.81173,3.67002 -15.01877,6.84862 -19.46752,6.06241 z m -270.17316,-1.42983 c -10.01421,-2.67331 -18.984669,-10.46495 -24.124595,-20.95441 -2.964966,-6.05096 -4.541368,-11.60847 -4.330563,-15.26772 0.170536,-2.96164 0.404433,-3.44042 2.304667,-4.71754 2.543791,-1.70968 5.711346,-1.84479 7.10657,-0.30313 0.556607,0.61503 1.436301,3.13528 1.95488,5.60056 1.212301,5.76306 2.169607,7.99514 5.719002,13.33421 4.573919,6.88012 10.703829,10.78334 18.892429,12.02976 3.88119,0.59079 4.76885,1.18182 5.61207,3.73677 0.86009,2.60616 0.0149,5.35669 -2.10195,6.83932 -1.68924,1.18317 -5.91157,1.06915 -11.03251,-0.29782 z m 92.79052,-54.51451 c -8.50989,-2.35867 -13.40453,-6.37468 -17.04722,-13.98713 -1.76947,-3.69794 -1.93583,-4.58315 -1.93583,-10.3018 0,-5.98316 0.10263,-6.46389 2.35134,-11.01389 3.36361,-6.80577 9.29068,-11.49892 17.51862,-13.87151 10.93803,-3.15408 22.65101,2.55916 27.8093,13.56454 1.98127,4.22714 2.11235,4.91231 2.11235,11.04194 0,5.77925 -0.18971,6.9311 -1.64014,9.95832 -4.58176,9.56292 -11.75412,14.82552 -20.85522,15.30221 -3.20757,0.168 -6.06785,-0.0703 -8.3132,-0.69268 z m 10.26746,-12.19506 c 4.79263,-1.3305 9.01185,-7.13652 9.0233,-12.41678 0.006,-2.4508 -3.15809,-8.08859 -5.64413,-10.05891 -4.03156,-3.19521 -11.7525,-3.22212 -15.99356,-0.0557 -3.16127,2.36025 -4.13507,4.33637 -4.39386,8.91648 -0.21199,3.7521 -0.0386,4.66939 1.32191,6.98205 3.61879,6.15241 9.08752,8.46482 15.68634,6.63289 z m 69.39914,11.63114 c -12.48811,-3.4804 -19.93768,-13.41653 -19.15882,-25.5536 0.57391,-8.94276 6.41577,-17.52686 14.49085,-21.29318 3.34774,-1.56143 4.41428,-1.74175 10.30182,-1.74175 6.33947,0 6.73202,0.0813 11.30992,2.34387 5.45778,2.69741 9.43507,6.67787 12.08562,12.09542 2.25139,4.60168 2.7592,12.13637 1.15074,17.07439 -1.41507,4.34424 -6.78648,11.84854 -9.95229,13.90415 -5.53957,3.59696 -13.96157,4.9171 -20.22784,3.1707 z m 11.57966,-12.56347 c 2.98208,-1.23605 5.62881,-4.67827 6.41465,-8.34259 1.22021,-5.6894 -1.0615,-10.64332 -6.43108,-13.96309 -2.49936,-1.54521 -3.67357,-1.87062 -6.60623,-1.83077 -4.49257,0.0611 -7.16476,1.55345 -9.47653,5.29257 -7.06393,11.4257 3.67382,23.9941 16.09919,18.84388 z m 65.43023,-2.79093 c -9.38441,-1.44973 -16.01516,-9.40006 -16.01516,-19.20231 0,-6.5118 4.58356,-13.37006 11.33064,-16.95378 2.1795,-1.15764 3.65028,-1.41964 7.96361,-1.41861 4.53495,10e-4 5.74564,0.2402 8.47907,1.67466 6.19812,3.25266 10.81517,10.60507 10.81517,17.22266 0,3.64557 -0.89774,6.42689 -3.13624,9.71665 -4.8807,7.17272 -11.43919,10.19626 -19.43709,8.96073 z m 8.21038,-13.67656 c 2.70979,-2.70981 2.64133,-5.57424 -0.20109,-8.4167 -1.77912,-1.77909 -2.5619,-2.11615 -4.91468,-2.11615 -2.42436,0 -3.05683,0.29419 -4.7302,2.20005 -2.13364,2.43006 -2.40998,4.40561 -0.99808,7.13586 1.24324,2.40413 2.54012,3.07043 6.02049,3.09307 2.43145,0.0158 3.22258,-0.29516 4.82356,-1.89613 z m -242.46743,11.83579 c -2.11072,-0.63296 -5.54255,-4.12974 -6.48448,-6.60722 -0.31941,-0.84005 -0.5807,-6.38277 -0.5807,-12.31717 v -10.78981 l -10.73631,-0.21719 c -12.066809,-0.2441 -12.817106,-0.49267 -15.444609,-5.11662 -2.567691,-4.51859 -2.218154,-20.92766 0.524056,-24.60708 2.636466,-3.53744 4.55282,-4.07627 15.698543,-4.41402 l 10.26952,-0.31119 v -11.08607 -11.08606 l 2.86146,-2.70676 c 3.58755,-3.39362 5.96485,-4.05554 14.5656,-4.05554 8.08112,0 10.78387,0.63454 13.73346,3.22434 3.06281,2.68917 3.65975,4.01685 3.72398,8.28302 0.0311,2.05391 0.10674,6.71116 0.16855,10.34946 l 0.11228,6.61508 11.04751,0.44912 c 12.6307,0.51347 14.53803,1.12706 16.97346,5.4603 1.33385,2.37325 1.38863,2.97917 1.08521,12.00687 -0.35178,10.46659 -1.091,13.06365 -4.40986,15.49301 -1.59987,1.1711 -2.79798,1.30302 -13.52128,1.48884 l -11.76588,0.20388 0.10941,11.00285 c 0.10569,10.61681 0.056,11.09779 -1.41122,13.70865 -2.34742,4.17659 -4.26963,4.84076 -15.22322,5.25978 -5.22999,0.20008 -10.19776,0.0987 -11.29548,-0.23047 z m 15.42121,-12.51872 c 0.28774,-0.45385 0.53968,-5.72655 0.55978,-11.7171 0.0374,-11.16597 0.52325,-15.73014 1.81012,-17.01033 0.52511,-0.52234 4.35004,-0.66952 13.54313,-0.52112 10.16744,0.16414 12.91986,0.0357 13.33705,-0.62239 0.70343,-1.10963 0.68744,-6.90795 -0.0243,-8.77967 -0.56345,-1.48206 -0.67648,-1.50025 -11.83796,-1.90454 -12.40053,-0.44918 -15.18612,-1.10975 -16.22727,-3.84811 -0.34014,-0.89463 -0.6227,-6.29967 -0.62793,-12.01121 -0.006,-5.71152 -0.24498,-10.75593 -0.53271,-11.20978 -0.70163,-1.10666 -4.85456,-1.60617 -7.54891,-0.90798 l -2.17838,0.56449 -0.35333,11.33142 c -0.50645,16.24188 -0.53041,16.26596 -16.21433,16.27987 l -10.34364,0.009 -0.38582,2.33398 c -0.61512,3.7216 -0.46151,7.31335 0.34742,8.12226 0.52623,0.52628 4.09834,0.74687 12.09431,0.74687 h 11.34745 l 1.42167,1.99658 c 1.33591,1.8761 1.43662,2.71177 1.66927,13.84829 0.13611,6.51845 0.49561,12.32324 0.79878,12.89954 0.9489,1.80345 8.25738,2.11608 9.34551,0.39976 z M 323.5348,348.5588 c -3.64524,-1.7011 -7.3816,-5.6093 -9.23759,-9.66253 -2.03168,-4.43687 -1.86668,-11.1468 0.38701,-15.73598 1.90148,-3.87209 5.17434,-7.16988 9.28931,-9.36018 3.77476,-2.0092 12.68889,-2.05845 16.36594,-0.0904 3.51796,1.88289 6.89539,5.35794 8.86633,9.12266 1.4241,2.72009 1.69223,4.01289 1.70237,8.20779 0.0106,4.36767 -0.20862,5.36134 -1.78471,8.09113 -2.49002,4.31287 -7.27599,8.712 -10.77528,9.90433 -4.40382,1.50053 -11.03345,1.28713 -14.81338,-0.47681 z m 12.66885,-11.24802 c 4.73637,-2.44928 4.02665,-9.19288 -1.25493,-11.9241 -4.82431,-2.49473 -10.89129,2.50364 -9.21269,7.58994 1.46294,4.43275 6.35776,6.45945 10.46762,4.33416 z m 50.81545,11.24802 c -3.65215,-1.70433 -7.06306,-5.2748 -9.43071,-9.87196 -1.36293,-2.64632 -1.69703,-4.14223 -1.70786,-7.64669 -0.0118,-3.77609 0.26745,-4.88111 2.09405,-8.29088 3.87858,-7.24039 10.05442,-10.90437 18.26512,-10.83639 5.29758,0.0439 11.03948,3.02271 13.91706,7.22007 4.19856,6.12408 4.96834,13.36836 2.0625,19.40972 -2.02515,4.21038 -7.70388,9.76975 -10.95727,10.72687 -4.31201,1.26855 -10.68273,0.95065 -14.24289,-0.71074 z m 12.00177,-11.33248 c 3.58693,-2.51236 4.0124,-7.15898 0.94847,-10.35707 -3.22619,-3.36736 -8.3803,-2.65288 -10.50522,1.45627 -2.89943,5.60695 4.46575,12.46666 9.55675,8.9008 z m -152.96446,-10.2399 c -1.1927,-0.28415 -2.83383,-1.29011 -3.64699,-2.23545 -1.25107,-1.45444 -1.43238,-2.19825 -1.179,-4.83574 0.45404,-4.72485 2.24355,-5.99095 8.46787,-5.99095 3.9636,0 5.06561,0.22223 6.16059,1.24233 2.69348,2.5094 2.30442,8.81556 -0.66341,10.75207 -1.80146,1.17543 -6.42144,1.71519 -9.13906,1.06774 z m 27.59777,0.0134 c -2.11552,-0.85371 -3.33417,-3.13857 -3.33417,-6.25123 0,-2.37605 0.32134,-3.1648 1.90882,-4.68508 1.80022,-1.72403 2.19855,-1.82652 7.00195,-1.80156 5.72833,0.0297 7.43308,0.70019 8.8761,3.49077 2.00722,3.88151 -0.36298,8.17437 -5.12325,9.27899 -2.98949,0.69373 -7.57019,0.67807 -9.32945,-0.0319 z m -61.77044,-1.59874 c -3.47203,-2.92156 -3.13799,-7.86478 0.6936,-10.26181 1.73057,-1.08266 2.86862,-1.24713 7.53851,-1.08947 5.14746,0.17378 5.59664,0.29769 7.00195,1.93198 2.73082,3.17559 1.38825,8.47639 -2.5652,10.12824 -1.16438,0.48651 -4.06512,0.88456 -6.44609,0.88456 -3.73673,0 -4.58805,-0.21801 -6.22277,-1.5935 z m 143.99189,-6.68689 c -3.55835,-1.70042 -7.64095,-6.00932 -9.74988,-10.2904 -1.13381,-2.3016 -1.42951,-3.94237 -1.42951,-7.9324 0,-4.77559 0.11869,-5.20946 2.3412,-8.55929 4.25002,-6.40562 10.67843,-9.57682 18.19099,-8.97378 7.27443,0.58392 12.67576,4.36573 15.76639,11.03904 3.12585,6.74943 1.9039,13.18927 -3.71352,19.57103 -4.0231,4.57052 -7.27935,6.14964 -13.23349,6.41759 -4.32528,0.19465 -5.47926,0.0151 -8.17218,-1.27179 z m 12.91819,-12.82965 c 2.84291,-3.18175 1.99602,-7.00834 -2.00947,-9.07966 -4.63721,-2.39799 -10.20037,0.31815 -10.20037,4.9802 0,1.90829 0.43257,2.72999 2.37338,4.50863 2.16681,1.98576 2.62271,2.14692 5.23901,1.85203 2.18816,-0.24664 3.27511,-0.78124 4.59745,-2.2612 z M 255.6937,401.68201 c 0.82299,-0.35366 -0.44234,-0.5198 -3.73437,-0.49033 -3.99715,0.0358 -4.48815,0.1325 -2.48958,0.49033 3.45896,0.61932 4.78273,0.61932 6.22395,0 z M 113.9111,261.97209 c 2.67063,-0.84601 5.52985,-2.01302 6.35384,-2.59337 1.31531,-0.92638 3.25239,-1.04215 15.87108,-0.94855 7.9051,0.0586 19.7644,0.28502 26.35401,0.50309 l 11.98111,0.39649 v -1.86192 c 0,-2.21165 -2.75678,-6.24647 -5.70183,-8.3452 l -2.07811,-1.48095 -26.45179,0.17627 c -29.30006,0.19525 -27.91125,-0.001 -30.89103,4.37435 -2.09641,3.07862 -2.70343,11.31798 -0.83382,11.31798 0.29744,0 2.7259,-0.69218 5.39654,-1.53819 z m 278.71833,-2.35178 c -0.73641,-5.7395 -1.50719,-7.75602 -3.70051,-9.68179 l -2.11838,-1.85995 -25.41389,-0.25425 c -19.17568,-0.19184 -25.79591,-0.0678 -26.96993,0.50521 -3.17011,1.54728 -7.46874,7.40251 -7.46874,10.17324 0,0.4245 6.63354,0.51959 20.07224,0.28773 22.60016,-0.38991 30.29856,0.10635 37.4993,2.41728 2.73854,0.87889 5.77564,1.61646 6.74913,1.63904 l 1.77003,0.0411 z M 287.66716,228.22017 c 7.44807,-1.19165 22.53843,-1.3304 91.97108,-0.84561 l 39.29871,0.27438 4.07819,-2.0077 c 2.49736,-1.22943 4.8164,-2.93971 5.98252,-4.41203 1.86613,-2.35619 4.34911,-7.17131 4.37618,-8.48642 0.009,-0.46854 -19.86311,-0.60406 -67.3447,-0.45926 l -67.35841,0.20541 -2.50545,2.44894 c -5.3554,5.23454 -9.2351,5.84916 -23.35569,3.70001 -17.30329,-2.63355 -21.05466,-3.02539 -29.09052,-3.03854 -7.51157,-0.0123 -8.80497,0.16065 -14.62629,1.95578 -8.01396,2.47127 -15.44834,3.01875 -18.87992,1.39035 -1.28033,-0.60755 -3.26427,-2.44267 -4.49942,-4.16187 l -2.20925,-3.07515 -12.18258,0.28255 c -6.70039,0.1554 -36.53459,0.0562 -66.29827,-0.22045 -29.763678,-0.27665 -54.168723,-0.44163 -54.233514,-0.36663 -0.06473,0.075 0.318915,1.49012 0.852619,3.14472 1.234894,3.82825 5.581577,8.69433 9.713658,10.87436 l 3.178945,1.67716 h 61.305912 c 49.42732,0 62.21039,0.16628 65.97388,0.85816 3.60859,0.66342 6.85724,0.73404 14.31509,0.3112 11.19813,-0.63491 41.11128,-0.43387 47.92445,0.32208 2.56738,0.28485 5.19214,0.55595 5.83284,0.60243 0.64075,0.0465 4.14173,-0.39176 7.77994,-0.97387 z m -68.21472,-22.57234 c 0.39223,-1.51361 0.31593,-2.21638 -0.28257,-2.60285 -3.09311,-1.99728 7.93784,-2.58756 40.5694,-2.17095 14.20619,0.18137 25.93162,0.34483 26.05659,0.36325 0.12498,0.0184 -0.25431,0.76835 -0.84278,1.6665 -0.86451,1.31938 -0.93503,1.92921 -0.36728,3.17531 0.5629,1.2354 0.87745,1.39729 1.58076,0.81356 1.31531,-1.09158 1.89351,-4.42137 0.87689,-5.04968 -0.61772,-0.38177 -0.51297,-0.51722 0.40027,-0.51756 0.68034,-2.6e-4 2.77737,-0.29775 4.66012,-0.66111 2.30385,-0.44463 22.58673,-0.60612 62.03145,-0.49388 32.23459,0.0917 58.84192,-0.0666 59.12754,-0.35189 0.28555,-0.28526 0.5192,-33.61451 0.5192,-74.06502 V 52.207145 l -1.44558,-3.580067 c -2.9044,-7.19292 -8.72653,-12.667477 -15.81954,-14.875062 -3.4968,-1.088332 -7.122,-1.148207 -67.28041,-1.111155 -57.26826,0.03529 -73.18194,0.326122 -74.21219,1.35636 -0.18323,0.183227 0.38253,1.105405 1.2573,2.049273 2.35708,2.543343 2.10893,4.896737 -0.82591,7.831542 -2.58817,2.588205 -4.11615,2.932458 -6.81685,1.535865 -3.12125,-1.614038 -4.16457,-5.281993 -2.5863,-9.092259 0.4312,-1.040968 0.66914,-2.007479 0.52885,-2.147798 -0.14035,-0.140318 -2.06853,-0.549338 -4.28494,-0.908933 -5.06356,-0.821518 -127.61745,-0.90579 -132.55441,-0.09115 -9.04153,1.491924 -14.503985,5.202064 -18.105661,12.29753 l -2.12218,4.18074 -0.165495,74.679158 c -0.09106,41.07353 0.05975,74.90431 0.334849,75.17949 0.27516,0.27519 27.937317,0.62057 61.471407,0.76752 38.62678,0.16927 61.56552,0.49604 62.59322,0.89166 1.21299,0.46696 1.71557,1.2004 1.99266,2.90781 0.70399,4.33815 2.7681,5.21134 3.71159,1.57016 z M 105.15176,189.15805 c -1.32657,-0.47546 -2.72696,-1.17955 -3.11197,-1.56466 -0.50819,-0.50827 -0.73325,-18.87278 -0.82107,-67.00545 l -0.12105,-66.30527 2.47066,-2.680313 c 1.35881,-1.474174 3.26383,-3.008888 4.23334,-3.410464 1.31948,-0.54655 15.98808,-0.668857 58.33392,-0.486389 l 56.57117,0.243761 13.0703,1.649073 c 15.6884,1.979403 18.63282,2.034734 25.33851,0.476164 9.81663,-2.281639 17.74233,-2.536839 76.7932,-2.472664 l 57.20147,0.06218 3.26757,3.266056 c 3.02074,3.019307 3.27187,3.496547 3.32434,6.317136 0.19114,10.267334 -0.21186,129.38843 -0.43972,129.9822 -0.15317,0.39916 -1.0399,1.17356 -1.97057,1.72089 -1.53694,0.90392 -14.9836,0.99866 -146.71014,1.03368 -122.24966,0.0325 -145.39672,-0.0972 -147.42996,-0.82592 z m 29.02564,-18.72103 1.70524,-1.58117 V 117.79676 66.73768 l -1.81932,-1.81931 c -2.53968,-2.539684 -4.82226,-2.420756 -7.55009,0.393384 l -2.1449,2.212696 v 49.2905 c 0,27.10977 0.21759,50.0694 0.48348,51.02139 0.5515,1.97425 3.74296,4.17609 6.05802,4.17954 0.85928,10e-4 2.32969,-0.70921 3.26757,-1.57886 z m 146.60009,0.0889 c 0.92519,-0.47843 2.24162,-1.48791 2.92544,-2.24331 1.2156,-1.34276 1.24747,-2.39942 1.42859,-47.31053 0.17165,-42.569288 0.26296,-45.969295 1.24479,-46.376273 0.80911,-0.335372 14.05219,-0.808106 25.47259,-0.909288 0.98668,-0.0087 2.66117,-3.254175 2.66117,-5.157708 0,-0.813122 -0.70635,-2.141972 -1.56962,-2.952991 -1.55723,-1.462908 -1.68662,-1.474927 -16.33788,-1.517349 -8.12257,-0.02353 -15.32841,-0.257547 -16.01304,-0.520055 -1.37288,-0.526397 -3.70904,1.158788 -5.43065,3.917399 -1.23576,1.980081 -1.65003,16.287407 -1.87117,64.624305 l -0.16039,35.06055 2.3216,2.12756 c 2.61238,2.39409 2.96851,2.47814 5.32857,1.25769 z m -76.33019,-2.3977 c 1.44913,-1.17257 3.01078,-3.72155 3.01078,-4.91429 0,-0.58221 -0.72509,-1.92027 -1.61132,-2.97349 l -1.61132,-1.91494 h -20.13778 c -20.1257,0 -20.13884,6.2e-4 -21.8048,1.43387 -1.38402,1.19049 -1.5957,1.75824 -1.24722,3.34501 0.23085,1.05113 1.12741,2.57649 1.99235,3.38969 1.552,1.45922 1.78559,1.48289 17.86156,1.81009 8.95894,0.18234 17.70589,0.3924 19.43764,0.4668 1.79107,0.0769 3.56315,-0.20017 4.11011,-0.64274 z m 53.45926,0.13715 c 1.40245,-0.75058 3.0775,-3.74656 3.0775,-5.50444 0,-0.67538 -0.72509,-2.08967 -1.61132,-3.14289 l -1.61132,-1.91494 h -18.96861 c -11.81966,0 -19.41997,0.24153 -20.1661,0.64085 -1.54037,0.82438 -2.9359,3.67185 -2.58375,5.27191 0.15068,0.68463 0.81677,2.00978 1.48024,2.94478 l 1.20621,1.69999 14.12538,0.17947 c 7.76898,0.0987 16.3144,0.24398 18.98983,0.3228 2.67549,0.0788 5.40332,-0.14507 6.06194,-0.49753 z M 188.47802,146.8648 c 2.39348,-2.39353 2.58256,-4.38144 0.65675,-6.90627 l -1.65669,-2.17207 h -14.19653 c -7.80813,0 -15.49147,-0.17749 -17.07422,-0.39442 -2.74452,-0.37618 -2.99329,-0.27878 -5.37718,2.10516 -1.37481,1.37477 -2.49961,2.8118 -2.49961,3.19341 0,0.3816 1.01289,1.81494 2.25077,3.18519 l 2.25083,2.49138 h 17.07174 17.07174 z m 41.59061,-0.1165 c 0.8904,-0.89038 1.78323,-2.13674 1.98414,-2.76967 0.46505,-1.46531 -1.18971,-4.70215 -2.86121,-5.59671 -0.8276,-0.44294 -5.95577,-0.66875 -14.46422,-0.63692 l -13.18201,0.0493 -1.40039,1.58678 c -1.85698,2.10412 -1.77937,4.70584 0.21093,7.07116 l 1.61131,1.91493 h 13.24127 13.24133 z m 121.25636,0.94638 c 0.69111,-0.36987 1.65937,-1.63661 2.15175,-2.81498 0.98021,-2.34596 0.60123,-3.66877 -1.80924,-6.31525 l -1.27548,-1.40039 h -23.18614 -23.18623 l -1.28991,1.63993 c -1.60678,2.04264 -1.63528,5.03185 -0.0675,7.07361 l 1.19475,1.55598 20.73081,0.32774 c 11.40197,0.18026 21.79958,0.39032 23.10573,0.4668 1.30622,0.0765 2.94038,-0.16356 3.63149,-0.53344 z m -95.03765,-20.46196 c 2.78117,-2.61274 2.57559,-5.17117 -0.67686,-8.42359 -1.0402,-1.0402 -3.14458,-1.07731 -37.23099,-0.65652 -39.03743,0.48192 -38.27624,0.40825 -39.57729,3.8303 -0.67499,1.77535 0.47233,4.59317 2.42796,5.96305 0.93092,0.65207 8.43041,0.8018 37.37122,0.74617 l 36.20659,-0.0696 z m -89.32733,-0.58985 c 1.72236,-2.41885 1.62184,-4.54542 -0.32414,-6.85811 -1.52723,-1.81503 -1.84746,-1.91494 -6.13707,-1.91494 -7.09561,0 -10.10483,0.59586 -11.85675,2.34781 -2.05813,2.05811 -1.97112,4.17947 0.26303,6.4136 1.8088,1.80882 1.86239,1.8193 9.29354,1.8193 h 7.47422 z m 147.81097,-0.0124 c 2.19569,-2.06257 2.11751,-4.61078 -0.21304,-6.94133 -1.81584,-1.81585 -1.83402,-1.81931 -9.56318,-1.81931 -6.89184,0 -7.92433,0.14193 -9.38385,1.28996 -2.7119,2.13321 -1.79331,7.3436 1.50875,8.55746 0.63148,0.23216 4.49998,0.4221 8.59658,0.4221 7.02629,0 7.53946,-0.0855 9.05474,-1.50888 z m 46.75818,0.29238 c 2.09716,-2.09716 1.99615,-4.68558 -0.27796,-7.12001 l -1.80569,-1.93301 H 344.1044 c -16.88396,0 -18.18987,0.2431 -19.60047,3.64856 -0.89425,2.15888 -0.30671,3.64935 2.22283,5.6391 1.56638,1.23209 2.38949,1.29306 17.4593,1.29306 h 15.81543 z M 208.73548,107.73963 c 1.4645,-2.37105 1.16774,-4.45343 -0.94013,-6.59609 l -1.4536,-1.477614 -20.75887,0.09678 c -18.98691,0.08852 -20.89168,0.19334 -22.31485,1.227944 -2.85344,2.0744 -2.20378,7.53361 1.02489,8.61198 0.8024,0.26799 10.85134,0.40991 22.33104,0.31538 l 20.87221,-0.17187 z m 169.90307,0.17187 c 1.63603,-2.12968 1.54858,-5.15362 -0.20819,-7.19597 l -1.43113,-1.663821 -35.30786,0.464282 c -33.64339,0.442392 -35.38037,0.521319 -36.84617,1.674289 -1.86974,1.47076 -1.99353,3.78858 -0.34661,6.4895 l 1.18703,1.94665 35.87879,-0.0795 35.87877,-0.0795 z M 182.40668,90.313942 c 1.91666,-1.767351 1.79523,-4.347116 -0.31593,-6.709927 l -1.71638,-1.920911 -14.22441,0.06396 c -17.06856,0.07675 -18.44181,0.4793 -18.44181,5.40603 0,2.063545 1.05378,3.923203 2.53321,4.470487 0.66391,0.245591 7.85761,0.341926 15.98603,0.214079 13.91788,-0.218902 14.86049,-0.307674 16.17929,-1.523716 z m 155.08963,-1.014769 c 1.53787,-2.159742 1.57316,-2.680258 0.34306,-5.059052 -1.75005,-3.384124 -2.83781,-3.558556 -18.97253,-3.042373 -8.04446,0.257354 -15.82939,0.491599 -17.2998,0.52054 -4.87148,0.09589 -7.22582,4.205611 -4.43886,7.748626 l 1.28992,1.639922 h 18.89555 18.89548 z M 245.07707,72.986515 c 1.76953,-2.102955 1.70374,-3.322009 -0.33584,-6.219483 -1.50626,-2.139894 -3.96429,-2.410928 -21.92673,-2.417768 l -14.20742,-0.0056 -1.89208,1.892125 c -1.58132,1.581294 -1.82748,2.215397 -1.49854,3.860045 0.21647,1.082363 0.99826,2.61157 1.73729,3.39824 1.34027,1.426654 1.38863,1.430307 18.91814,1.430307 h 17.57444 z m -49.48968,-0.324268 c 1.6809,-2.136876 1.63808,-4.742253 -0.11042,-6.724948 l -1.40039,-1.587948 -14.93312,-0.04512 -14.93319,-0.04512 -1.40468,1.633096 c -1.84254,2.142041 -1.77694,4.108499 0.19898,5.967555 1.51802,1.428192 2.12541,1.527184 11.35871,1.851134 20.92137,0.734034 19.77747,0.790554 21.22411,-1.048586 z m -41.17468,-1.720605 c 1.20664,-2.64831 -0.64685,-6.597793 -3.09635,-6.597793 -1.33765,0 -4.23061,2.847918 -4.23061,4.164744 0,1.537285 2.95171,3.926392 4.85095,3.926392 1.29122,0 1.98669,-0.419469 2.47601,-1.493343 z"
       id="path1"
       sodipodi:nodetypes="ssssssssssssssssssssscssssssssscsssssssscsssccscssssssssssssscsssscsscsscscsssssssssssscsssssssssssssssssssscssssssssscssssssssssscssscsssssssssssssssssssscsssssssssssssscsssscccssscscssssscscssscsssssscsscsscssscsscsssssssssssssssssssssssssssssssssssssssssssssssssssssssssssssssssssssssssscsscsssssscsssssscssscsscscsssssscssssscssssssssssssssssssscsssssssssssscssssssssscssscssscscsssssscccsscscssssssssssssscssssscscsssssssscsssscssssscssssscccssssscsscccsssscccsscssssssssscssssssscsssssssssscsssscssscsssscssscssscccssscsssssssssscccsssccsssscssscccssssssssss" /></g></svg>
